<?xml version="1.0" standalone="no"?>
<!DOCTYPE svg PUBLIC "-//W3C//DTD SVG 1.1//EN" "http://www.w3.org/Graphics/SVG/1.1/DTD/svg11.dtd" >
<!--
2013-9-30: Created.
-->
<svg>
<metadata>
Created by iconfont
</metadata>
<defs>

<font id="iconfont" horiz-adv-x="1024" >
  <font-face
    font-family="iconfont"
    font-weight="500"
    font-stretch="normal"
    units-per-em="1024"
    ascent="896"
    descent="-128"
  />
    <missing-glyph />
    
    <glyph glyph-name="Play-copy" unicode="&#60017;" d="M515.82324219 798.20214844C285.72998047 798.20214844 99.08984375 611.56201172 99.08984375 381.44238281c0-230.10644531 186.64013672-416.75976563 416.75976563-416.75976562s416.75976563 186.65332031 416.75976562 416.75976562C932.59619141 610.28320313 745.94287109 798.20214844 515.82324219 798.20214844z m0-809.23535156c-216.03955078 0-391.18359375 175.14404297-391.18359375 391.19677734 0 216.05273438 175.14404297 391.19677734 391.19677734 391.19677734 216.05273438 0 391.19677734-175.14404297 391.19677735-391.19677734 0-216.05273438-175.14404297-391.19677734-391.19677735-391.19677734zM671.79833984 414.67822266l-194.32617187 122.73925781c-17.89013672 11.49609375-42.1875 6.38085938-52.40478516-11.50927734-3.82324219-6.39404297-6.39404297-12.78808594-6.39404297-20.4609375v-245.45214844c0-21.73974609 16.61132813-38.36425781 38.36425782-38.36425781 7.65966797 0 14.05371094 2.57080078 20.43457031 6.40722656l195.60498047 122.72607422c17.90332031 11.50927734 23.01855469 34.51464844 11.50927734 52.41796875-3.83642578 3.82324219-7.67285156 7.65966797-12.78808594 11.49609375z"  horiz-adv-x="1024" />

    
    <glyph glyph-name="yanchu1" unicode="&#58893;" d="M608 512.01c38.859-29.194 64-75.669 64-128.01 0-88.363-71.637-160-160-160s-160 71.637-160 160 71.637 160 160 160c36.021 0 69.259-11.904 96-31.99V714.668a32 32 0 0 0 64 0V384a32 32 0 0 0-64 0V512.01zM512 810.668a32 32 0 0 0 0-64c-200.299 0-362.667-162.368-362.667-362.667S311.701 21.333 512 21.333 874.667 183.701 874.667 384a360.939 360.939 0 0 1-40.448 166.613 32 32 0 1 0 56.821 29.44A424.939 424.939 0 0 0 938.667 384c0-235.637-191.03-426.667-426.667-426.667S85.333 148.363 85.333 384 276.363 810.667 512 810.667zM512 288a96 96 0 1 1 0 192 96 96 0 0 1 0-192z m213.333 330.667c-61.802 0-117.333 43.157-117.333 96s55.53 96 117.333 96c63.126 0 117.334-40.651 117.334-96s-54.208-96-117.334-96z m0 64c31.126 0 53.334 16.65 53.334 32s-22.208 32-53.334 32c-29.482 0-53.333-18.539-53.333-32s23.85-32 53.333-32z"  horiz-adv-x="1024" />

    
    <glyph glyph-name="luntan-copy" unicode="&#58889;" d="M780.49967094 781.98719156a33.50228719 33.50228719 0 1 1-37.54803281-55.49862843 412.9734675 412.9734675 0 1 0-461.77493157 0 33.50228719 33.50228719 0 0 1-37.54803281 55.49862843 480 480 0 1 1 536.81610187 0zM392.50333062 864a33.48581906 33.48581906 0 0 1-33.48581906-33.48581906v-32.66239688a33.48581906 33.48581906 0 0 1 66.97163719 0V830.51418094a33.48581906 33.48581906 0 0 1-33.48581813 33.48581906zM631.57011875 864a33.48581906 33.48581906 0 0 1-33.48581906-33.48581906v-32.66239688a33.48581906 33.48581906 0 1 1 66.97163812 0V830.51418094a33.48581906 33.48581906 0 0 1-33.48581906 33.48581906zM419.34687969 689.215005c12.02195813-19.59743813 44.95882875-52.09515094 92.16834469-52.09515094s80.69533406 32.49771281 92.99176593 51.71088657a33.26623969 33.26623969 0 0 1-9.88106156 45.83714624 33.70539844 33.70539844 0 0 1-46.27630406-9.38700843s-14.6020125-21.18938719-36.66971625-21.18938719-34.74839906 19.37785875-35.62671563 20.75022844a33.48581906 33.48581906 0 0 1-56.70631312-35.62671469zM692.94248844 551.86825219a18.06038438 18.06038438 0 0 0 16.46843531-25.25160094l-94.74839813-219.30466594a112.36962469 112.36962469 0 0 0-23.54986312-35.07776718 111.05215031 111.05215031 0 0 0-35.51692595-23.71454719l-218.59103436-94.36413563a18.11527875 18.11527875 0 0 0-23.71454625 23.76944158l94.52881969 218.59103436a110.997255 110.997255 0 0 0 58.73741999 59.01189375l219.13998093 94.80329344a18.49954219 18.49954219 0 0 0 7.24611189 1.53705375zM583.75676094 424.56724594l-87.39249751-37.76761219a35.40713625 35.40713625 0 0 1-19.59743812-19.54254281l-37.82250656-87.39249844 86.89844436 37.60292812a37.43824313 37.43824313 0 0 1 12.35132626 8.01463875 36.34034812 36.34034812 0 0 1 7.68527063 11.69258907l37.93229625 87.50228719z"  horiz-adv-x="1024" />

    
    <glyph glyph-name="yanchu" unicode="&#58888;" d="M662.06753678 348.22915867999995c-26.85286627-16.56051029-52.29015495-32.55245938-78.0664832-48.00846962-22.09000107-13.27147691-32.66663765-10.88887922-46.70357504 9.49893347-13.58371954 19.70856846-43.55668195 22.09000107-59.29347755 4.06963997-6.06775979-6.9054555-10.63605589-15.21367267-15.2567808-23.26673636-52.03616654-90.65638571-103.95698973-181.39898766-155.93490204-272.0833354-13.32623587-23.19683129-17.15586845-24.21744526-40.40862378-11.19995676-20.02081109 11.19995677-40.5798912 21.52260494-59.52066902 34.3105718-5.86969543 3.96827762-7.11750087 14.63229554-10.51954745 22.31719254 8.27792498 1.24547527 18.11939328 5.95358151 24.52735773 3.03387989 20.10353209-9.04804579 38.90566485-21.04259015 59.71989845-32.72489187 11.39918621 19.84954368 22.43020573 38.96042382 33.43326322 58.13188835 41.65409906 72.64884053 83.28373134 145.4002085 124.99491953 218.04904903 26.11769799 45.44295367 47.95254557 53.66611968 97.51873309 38.12622336 6.15397603-1.94219577 14.77560093-3.01989888 19.82274674-0.11301319 26.62683989 15.24046962 52.43229525 31.90117717 80.61801813 49.36812317-12.33474901 23.02672896-24.58677703 44.60642304-35.67255552 66.78031018-19.02582898 38.21127453-5.92561949 78.49290411 29.86111431 93.97454621 28.32786318 12.30678699 62.41357369 2.08550115 78.09211506-25.91730347 26.88432355-48.16459093 56.23513088-95.44837803 76.82217301-146.26586624 15.82301184-39.15965326 23.84694841-82.74546233 27.75813689-125.05200868 4.08478606-44.40835869 19.93459485-72.79331101 65.10724893-82.86080568 15.82301184-3.51389469 30.60094293-12.0213413 45.59907498-18.68445924 24.4993957-10.94713344 33.60220046-27.42259257 26.40081352-46.59056185-7.11750087-19.02932423-27.59036473-29.97529259-49.73862002-21.49464291-42.05255794 16.10729245-83.42354147 34.19755861-124.0313947 53.6789356-8.67638386 4.16867214-14.80123278 16.92751189-18.82776463 27.02296861-8.28258531 21.01346304-14.3503451 42.93336178-22.40340878 67.75898112-22.51409181-24.14637511-43.55668195-45.50004281-62.86679154-68.23899591-3.91235357-4.6510171-2.86377757-14.85948701-1.84316359-22.14942038 6.18426823-44.68797895 14.09402653-89.15342677 19.2262235-133.92878705 3.68632718-32.24021675-22.59914297-51.04234951-48.94403242-35.19021056-9.1598939 5.50269383-17.75006151 18.03434211-19.65264441 28.64127089-9.21465287 51.40935111-18.51668707 103.07618589-22.42787556 155.05409821-1.41907285 18.57377621 9.81234119 39.64199822 19.62235221 57.16836352 12.19377379 21.69270727 28.92438642 40.86067655 43.66853007 61.12266013C685.06513863 313.2649745 685.03717661 313.2649745 662.06753678 348.22915867999995M216.32719986 596.01116273c91.13756558-51.59692971 180.54614585-102.20004238 272.14158961-154.00668729C416.95241102 315.68835014 346.00226361 190.39516898 274.08859136 63.412615380000034c-90.96746325 51.52585955-180.40517063 102.1685851-272.05420829 154.06261135C73.46571037 343.64921172000004 144.41352761 469.00181218 216.32719986 596.01116273M204.41770667 364.87472013c-52.88667819 0.79342251-97.80301369-42.87627264-98.82479275-95.90159587-1.04974109-53.82340608 42.96015872-99.10790827 97.0084261-99.84424164 53.53912547-0.68040931 99.22092146 44.52020679 99.13470521 98.12923734C301.68128626 319.78711722 257.44419499 364.15236777999996 204.41770667 364.87472013M337.06956117 444.44416226c-23.62092203 0.28311552-45.28450219-19.51050411-45.82393628-41.85449358-0.51030699-21.94902585 23.19566621-45.31595947 45.65383396-45.08760291 23.67917625 0.28311552 44.35010446 20.50199097 44.20796416 43.24327424C380.96761287 422.94951935 359.52889401 444.21580572 337.06956117 444.44416226M1027.16189355 435.42640866c1.44703488-20.97152-11.51336448-36.68035357-30.28403997-47.8674944-30.08714069-17.99123399-60.65546126-35.2170075-91.39388416-52.08976042-22.20650951-12.16464669-44.57729593-9.45582535-64.68432327 4.70810624-27.61949184 19.42195769-41.74031531 47.26864099-33.34704697 80.10538098 7.60101091 29.71897401-1.33285661 46.73386723-26.20041899 62.15958528-29.52090965 18.31978781-33.97036715 51.21128675-10.83295516 77.58413824 14.51928235 16.54652928 11.96774741 29.20750194 1.67306126 45.76917731-50.36310528 80.77413945-100.04230599 162.01664285-149.80888803 243.18691101-14.4330661 23.50790883-12.07959552 32.21341981 11.99570944 46.44958663 50.64505571 30.02888647 51.43847822 29.80286009 78.18066147-21.36764871 40.83387961-77.93948899 81.97883677-155.74965362 122.3012443-233.95711204 8.65191709-16.73177771 18.12288853-24.50172587 38.62371442-20.92724679 35.75760669 6.32291328 61.50713799-16.73294279 62.8399946-52.74453789 1.18955122-32.60838343 5.49919858-38.40817379 36.83297962-49.29821809C1007.79236466 505.0565154 1028.32581291 475.12666111 1027.16189355 435.42640866M644.23242411 617.64678086c-0.39845888-33.6592896-26.76898019-59.40649074-60.62633416-59.2072613-33.43209813 0.16893725-60.28729458 26.93791744-60.34321862 60.04495702-0.02796203 33.30393885 29.20633685 61.88695552 62.2702683 60.92343068C618.88018659 678.3861282 644.65767993 651.27810844 644.23242411 617.64678086M402.03583488-26.874438550000036c-31.27669191-0.17010233-56.14658446 24.52852281-55.75045575 55.43704803 0.34020466 30.00092445 24.72891733 53.90845725 55.07004644 54.04826738 31.07979264 0.17126741 56.51475115-25.01203285 56.06153329-55.52093412C456.96257593-2.6581583800000317 432.20802674-26.732298249999985 402.03583488-26.874438550000036M250.04357859 266.41925916c0.02912711-23.02672896-22.00378482-44.12407808-46.36220529-44.29301533-23.30984448-0.17126741-47.24300914 23.76189725-46.59056185 46.61852387 0.65244729 23.36576853 22.85546155 43.61260601 47.27097116 43.14424207C226.96092558 311.50686207 250.01445149 288.56751443999997 250.04357859 266.41925916"  horiz-adv-x="1024" />

    
    <glyph glyph-name="huo" unicode="&#58988;" d="M336.50915555-74.46072889000004c42.52558222-14.12664889 56.65223111 24.75804445 39.0303289 39.03032889-56.65223111 39.03032889-85.05116445 109.80920889-63.78837334 173.74321778C333.01390222 209.23733332999996 389.66613333 237.49063110999998 389.66613333 343.95022222c0 0 70.92451555-53.15697778 56.65223112-134.71288889 70.92451555 81.55591111 39.03032889 187.86986667 24.75804444 237.53159112C651.81013333 351.08636445 807.78581333 141.95370666999997 627.05208889-35.28476445000001c-21.26279111-17.76753778 0-49.66172445 31.89418666-39.03032888 492.68508445 280.05717333 120.58624 698.32248889 56.65223112 747.98421333 21.26279111-49.66172445 24.75804445-127.57674667-17.76753778-166.60707555C623.70247111 786.97358222 442.82311111 843.62581333 442.82311111 843.62581333c21.26279111-145.34428445-81.55591111-301.31996445-177.23847111-421.76056888-3.49525333 60.29312-7.13614222 99.17781333-35.38944 152.48042666-7.13614222-102.81870222-88.54641778-187.86986667-109.95484445-294.18382222-28.25329778-141.84903111 21.40842667-244.66773333 216.2688-354.62257778z m0 0"  horiz-adv-x="1024" />

    
    <glyph glyph-name="iconfonttubiao_shipinhuifang" unicode="&#58898;" d="M476.51589689 205.80397511l213.03326341 136.29788919c15.33906489 9.797632 24.08933452 25.100288 24.08933452 41.8981357 0 16.80148859-8.84007822 32.0021997-24.08933452 41.7998317l-213.03326341 136.39983408c-8.29879941 5.20283022-16.6910483 7.89951525-24.98984771 7.89951525-23.37329303 0-40.42236208-21.00186075-40.42236207-49.80129185v-272.59577836c0-28.901376 16.96047408-49.80129185 40.42236207-49.80129185 8.29758578 0 16.6910483 2.59838103 24.98984771 7.90315614zM512.00485452 851.24740741c-256.99214222 0-467.2510483-210.25890608-467.2510483-467.24740741a452.09524148 452.09524148 0 0 1 65.05054815-234.65892978c3.014656-5.04384475 74.81177125 64.52868741 215.29910993 208.70303289L142.87454815 412.0372717C156.89197037 608.27754192 315.75608889 757.7967123 516.6736877 757.7967123c205.59007289 0 373.80035318-168.20663941 373.80035319-373.7967123S722.26376059 10.199646819999998 516.6736877 10.199646819999998c-70.08589748 0-135.49932089 18.69232355-191.57143703 51.40206933l-70.090752-65.4134234C329.77108385-50.541302520000045 418.54930489-83.24740741000005 512.00485452-83.24740741000005c256.98486045 0 467.24376652 210.26254697 467.24376651 467.24740741 0 256.98850133-205.586432 467.24740741-467.24376651 467.24740741z"  horiz-adv-x="1024" />

    
    <glyph glyph-name="paihang" unicode="&#58885;" d="M385.793463 896m121.904762 0l0 0q121.904762 0 121.904762-121.904762l0-780.190476q0-121.904762-121.904762-121.904762l0 0q-121.904762 0-121.904762 121.904762l0 780.190476q0 121.904762 121.904762 121.904762ZM44.46013 408.380952m121.904761 0l0 0q121.904762 0 121.904762-121.904762l0-292.571428q0-121.904762-121.904762-121.904762l0 0q-121.904762 0-121.904761 121.904762l0 292.571428q0 121.904762 121.904761 121.904762ZM727.126796 554.666667m121.904762 0l0 0q121.904762 0 121.904762-121.904762l0-438.857143q0-121.904762-121.904762-121.904762l0 0q-121.904762 0-121.904762 121.904762l0 438.857143q0 121.904762 121.904762 121.904762Z"  horiz-adv-x="1024" />

    
    <glyph glyph-name="rili" unicode="&#59119;" d="M853.235823 782.059706H877.588916a146.264819 146.264819 0 0 0 146.264819-146.26482V18.264819a146.264819 146.264819 0 0 0-146.264819-146.264819H146.264819a146.264819 146.264819 0 0 0-146.264819 146.264819V635.794886a146.264819 146.264819 0 0 0 146.264819 146.26482h81.250107V838.95672a56.897015 56.897015 0 1 0 113.79403 0v-56.897014h398.132838V838.95672a56.897015 56.897015 0 0 0 113.794029 0v-56.897014zM369.757463 497.720897v-95.803457h191.606914L417.586059 66.53221h95.803457l143.632052 335.312098v95.803457h-287.41037zM170.617912 668.338809v-56.897015h682.617911V668.411941H170.617912z"  horiz-adv-x="1024" />

    
    <glyph glyph-name="diantai" unicode="&#58883;" d="M524.33410444 413.53115979v-373.76478778h-0.24375776c-3.75385718-56.18598685-51.35959835-100.62288658-109.52001797-100.62288659-60.6223648 0-109.76377415 48.2638849-109.76377416 107.81371839s49.14140935 107.81371839 109.76377416 107.8137184c24.7169598 0 47.52042625-8.01960535 65.86314085-21.5481184V499.78457281h43.90063488l104.91301021-141.68375271a23.47379869 23.47379869 0 0 0-3.53447648-31.81028821c-8.04398081-6.7642573-20.14651601-5.8501673-27.03265061 2.04755918l-74.34588312 85.19306872zM246.18299803 139.04859563000002A364.18513717 364.18513717 0 0 0 146.36450795 390.09392505c0 201.94048245 163.6950096 365.63549205 365.63549205 365.63549206 201.94048245 0 365.63549205-163.6950096 365.63549205-365.63549206 0-149.48397735-90.53134815-282.1974723-226.38930904-338.20064239a36.56354874 36.56354874 0 1 1 27.86142419-67.60600284C842.1322861 51.49108363000005 950.76258953 210.73752832000002 950.76258953 390.09392505c0 242.31882783-196.4437617 438.76258953-438.76258953 438.76258953s-438.76258953-196.4437617-438.76258953-438.76258953a437.30004771 437.30004771 0 0 1 119.7821862-301.27145701 36.56354874 36.56354874 0 0 1 53.15121283 50.21394065zM361.35817802 247.83734349999997A206.3159194 206.3159194 0 0 0 304.80655455 390.09392505c0 114.43172135 92.76172409 207.19344545 207.19344545 207.19344546s207.19344545-92.76172409 207.19344545-207.19344546c0-84.70555632-51.31084743-159.90458845-128.28930707-191.65393719a36.56354874 36.56354874 0 1 1 27.86142574-67.60600284A280.36929541 280.36929541 0 0 1 792.32054292 390.09392505c0 154.82225525-125.49828925 280.32054292-280.32054292 280.3205429s-280.32054292-125.49828925-280.32054292-280.3205429a279.43082993 279.43082993 0 0 1 76.52750811-192.48271074 36.56354874 36.56354874 0 0 1 53.15121283 50.21394067z"  horiz-adv-x="1024" />

    
    <glyph glyph-name="gedan" unicode="&#58882;" d="M796.2 831.8H228c-55.2 0-100-44.8-100-100v-695.3c0-55.2 44.8-100 100-100h568.1c55.2 0 100 44.8 100 100V731.8c0.1 55.2-44.7 100-99.9 100zM265.4 630.7c5.8 5.8 13.8 9.4 22.6 9.4h320c17.7 0 32-14.3 32-32 0-8.9-3.6-16.9-9.4-22.7-5.8-5.8-13.8-9.4-22.6-9.4H288c-17.7 0-32 14.3-32 32 0 8.9 3.6 16.9 9.4 22.7z m0-192c5.8 5.8 13.8 9.4 22.6 9.4h320c17.7 0 32-14.3 32-32 0-8.8-3.6-16.8-9.4-22.6-5.8-5.8-13.8-9.4-22.6-9.4H288c-17.7 0-32 14.3-32 32 0 8.8 3.6 16.8 9.4 22.6z m173.3-237.3c-5.8-5.8-13.8-9.4-22.6-9.4h-128c-17.7 0-32 14.3-32 32 0 8.8 3.6 16.8 9.4 22.6s13.8 9.4 22.6 9.4h128c17.7 0 32-14.3 32-32 0-8.8-3.6-16.8-9.4-22.6zM866 415c-17.2-20.6-47.2-31.8-78.9-26.9-20 3.1-37.3 12-50 24.5l-42.8-276.7c-0.4-2.6-1.3-5.1-2.6-7.3 0.3-4.2 0.2-8.5-0.5-12.8-6.5-42-59.1-68.7-117.6-59.6-58.4 9.1-100.5 50.4-94 92.4 6.5 42 59.1 68.7 117.6 59.6 24.8-3.9 46.7-13.5 63.2-26.6L706.9 482c1.6 10.2 10.4 17.4 20.4 17.2 0.9 0 1.8-0.1 2.7-0.2 3-0.5 5.7-1.6 8.1-3.1 1.1-10.3 3.8-20.3 8-29.5 5.1-14.2 15.2-27 28.7-36.4 11.1-7.8 24.6-13.4 39.4-15.7 21.3-3.3 41.8 0.7 58.1 9.8-1.8-3.4-3.9-6.3-6.3-9.1z"  horiz-adv-x="1024" />

    
    <glyph glyph-name="play-list" unicode="&#59158;" d="M98.7008 515.786667l205.397333 136.930133c13.2224 8.814933 13.258667 28.2304 0.0704 37.0944L98.7712 827.882667C83.944533 837.851733 64 827.2256 64 809.361067V534.357333c0-17.826133 19.867733-28.458667 34.7008-18.570666zM416 640h512c17.6 0 32 14.4 32 32s-14.4 32-32 32H416c-17.6 0-32-14.4-32-32s14.4-32 32-32zM928 0H96c-17.6 0-32-14.4-32-32s14.4-32 32-32h832c17.6 0 32 14.4 32 32s-14.4 32-32 32zM928 352H96c-17.6 0-32-14.4-32-32s14.4-32 32-32h832c17.6 0 32 14.4 32 32s-14.4 32-32 32z"  horiz-adv-x="1024" />

    
    <glyph glyph-name="play_list" unicode="&#58947;" d="M164.571429-28.635429h694.857142a18.285714 18.285714 0 0 1 18.285715 18.285715v36.571428a18.285714 18.285714 0 0 1-18.285715 18.285715h-694.857142a18.285714 18.285714 0 0 1-18.285715-18.285715v-36.571428a18.285714 18.285714 0 0 1 18.285715-18.285715z m0 256h694.857142a18.285714 18.285714 0 0 1 18.285715 18.285715v36.571428a18.285714 18.285714 0 0 1-18.285715 18.285715h-694.857142a18.285714 18.285714 0 0 1-18.285715-18.285715v-36.571428a18.285714 18.285714 0 0 1 18.285715-18.285715z m292.571428 256a18.285714 18.285714 0 0 0-18.285714 18.285715v36.571428a18.285714 18.285714 0 0 0 18.285714 18.285715h402.285714a18.285714 18.285714 0 0 0 18.285715-18.285715v-36.571428a18.285714 18.285714 0 0 0-18.285715-18.285715h-402.285714zM146.285714 610.742857a29.257143 29.257143 0 0 0 43.776 25.380572l167.753143-95.853715a29.257143 29.257143 0 0 0 0-50.834285l-167.753143-95.817143A29.257143 29.257143 0 0 0 146.285714 418.962286V610.742857z"  horiz-adv-x="1024" />

    
    <glyph glyph-name="playlist_b" unicode="&#58881;" d="M98.7008 515.7866670000001l205.397333 136.930133c13.2224 8.814933 13.258667 28.2304 0.0704 37.0944L98.7712 827.882667C83.944533 837.851733 64 827.2256 64 809.361067V534.3573329999999c0-17.826133 19.867733-28.458667 34.7008-18.570666zM416 640h512c17.6 0 32 14.4 32 32s-14.4 32-32 32H416c-17.6 0-32-14.4-32-32s14.4-32 32-32zM928 0H96c-17.6 0-32-14.4-32-32s14.4-32 32-32h832c17.6 0 32 14.4 32 32s-14.4 32-32 32zM928 352H96c-17.6 0-32-14.4-32-32s14.4-32 32-32h832c17.6 0 32 14.4 32 32s-14.4 32-32 32z"  horiz-adv-x="1024" />

    
    <glyph glyph-name="play1" unicode="&#59034;" d="M512 791.3c224.6 0 407.3-182.7 407.3-407.3 0-224.6-182.7-407.3-407.3-407.3-224.6 0-407.3 182.7-407.3 407.3 0 224.6 182.7 407.3 407.3 407.3m0 40.7C264.6 832 64 631.4 64 384s200.6-448 448-448 448 200.6 448 448S759.4 832 512 832zM443.3 514.2L651.6 384 443.3 253.8V514.2m-40.7 73.5v-407.3L728.4 384 402.6 587.7z"  horiz-adv-x="1024" />

    
    <glyph glyph-name="ic_play" unicode="&#59271;" d="M512 896c282.768 0 512-229.232 512-512 0-282.768-229.232-512-512-512C229.232-128 0 101.232 0 384 0 666.768 229.232 896 512 896z m0-96C282.24 800 96 613.76 96 384s186.24-416 416-416 416 186.24 416 416S741.76 800 512 800z m-96-205.152a16 16 0 0 0 8.592-2.496l306.192-194.848a16 16 0 0 0 0-27.008L424.592 175.648A16 16 0 0 0 400 189.152V578.848a16 16 0 0 0 16 16z"  horiz-adv-x="1024" />

    
    <glyph glyph-name="shoucang2" unicode="&#58880;" d="M683.9 752.1c-67.95 0-130.95-34.2-172.8-90.45-41.4 56.25-104.85 90.45-172.8 90.45-122.4 0-221.85-108.9-221.85-242.55 0-79.65 35.55-135.9 64.35-180.9C264.05 197.70000000000005 473.75 35.25 482.75 28.5c8.55-6.75 18.45-9.9 28.35-9.9s19.8 3.15 28.35 9.9c9 6.75 218.25 169.65 301.95 300.15 28.8 45 64.35 101.25 64.35 180.9 0 133.65-99.45 242.55-221.85 242.55zM784.25 330c-76.95-108-239.85-231.3-247.95-237.15-7.65-5.85-16.65-9-25.2-9-9 0-17.55 2.7-25.2 9-8.1 5.85-167.85 130.5-247.95 241.65-25.65 40.5-66.6 90.9-66.6 162 0 119.7 66.6 203.85 175.95 203.85 60.75 0 126.9-58.05 163.8-108.45 37.35 50.4 103.05 108.45 163.8 108.45 109.8 0 180.9-84.15 180.9-203.85 0-71.1-45.45-126.45-71.55-166.5z"  horiz-adv-x="1024" />

    
    <glyph glyph-name="shoucang1" unicode="&#58886;" d="M691.2 764.928c-70.656 0-136.192-35.84-179.2-94.208-43.008 58.368-108.544 94.208-179.2 94.208-126.976 0-230.4-112.64-230.4-251.904 0-82.944 36.864-141.312 66.56-187.392 86.016-136.192 304.128-304.128 313.344-311.296 9.216-7.168 19.456-10.24 29.696-10.24s20.48 3.072 29.696 10.24C550.912 21.504 768 190.464 855.04 325.632c29.696 47.104 66.56 105.472 66.56 187.392 0 138.24-103.424 251.904-230.4 251.904zM795.648 326.656C715.776 215.04 546.816 87.04 538.624 80.896c-8.192-6.144-17.408-9.216-26.624-9.216-9.216 0-18.432 3.072-26.624 9.216-8.192 6.144-174.08 135.168-257.024 250.88-26.624 41.984-69.632 94.208-69.632 167.936 0 123.904 69.632 211.968 182.272 211.968 63.488 0 132.096-60.416 169.984-112.64 38.912 52.224 106.496 112.64 169.984 112.64 113.664 0 187.392-87.04 187.392-211.968 1.024-73.728-46.08-132.096-72.704-173.056z"  horiz-adv-x="1024" />

    
    <glyph glyph-name="gengduo" unicode="&#58887;" d="M512.87890625-55.453125c-59.4140625 0-117.0703125 11.6015625-171.38671875 34.62890625-52.47070313 22.1484375-99.4921875 53.96484375-139.921875 94.39453125-40.4296875 40.4296875-72.15820313 87.5390625-94.39453125 139.921875C84.23632812 267.80859375 72.546875 325.46484375 72.546875 384.87890625s11.6015625 117.0703125 34.62890625 171.38671875c22.1484375 52.47070313 53.96484375 99.4921875 94.39453125 139.921875 40.4296875 40.4296875 87.5390625 72.15820313 139.921875 94.39453125C395.80859375 813.52148438 453.46484375 825.2109375 512.87890625 825.2109375s117.0703125-11.6015625 171.38671875-34.62890625c52.47070313-22.1484375 99.4921875-53.96484375 139.921875-94.39453125 40.4296875-40.4296875 72.15820313-87.5390625 94.39453125-139.921875 22.93945313-54.31640625 34.62890625-111.97265625 34.62890625-171.38671875s-11.6015625-117.0703125-34.62890625-171.38671875c-22.1484375-52.47070313-53.96484375-99.4921875-94.39453125-139.921875S736.73632813 1.32421875 684.265625-20.82421875c-54.31640625-22.93945313-111.97265625-34.62890625-171.38671875-34.62890625z m0 829.95117188c-52.64648438 0-103.62304688-10.28320313-151.61132813-30.5859375-46.40625-19.59960938-88.06640625-47.72460938-123.83789062-83.49609375s-63.89648438-77.43164063-83.49609375-123.83789063C133.54296875 488.50195313 123.25976562 437.52539063 123.25976562 384.87890625s10.28320313-103.62304688 30.58593751-151.61132813c19.59960938-46.40625 47.72460938-88.06640625 83.49609374-123.83789062s77.43164063-63.89648438 123.83789063-83.49609375c47.98828125-20.30273438 99.05273438-30.5859375 151.61132813-30.5859375 52.64648438 0 103.62304688 10.28320313 151.61132812 30.5859375 46.40625 19.59960938 88.06640625 47.72460938 123.83789063 83.49609375s63.89648438 77.43164063 83.49609374 123.83789063c20.30273438 47.98828125 30.5859375 99.05273438 30.5859375 151.61132812 0 52.64648438-10.28320313 103.62304688-30.5859375 151.61132813-19.59960938 46.40625-47.72460938 88.06640625-83.49609375 123.83789062s-77.43164063 63.89648438-123.83789062 83.49609375C616.50195313 764.21484375 565.4375 774.49804688 512.87890625 774.49804688zM505.23242187 579.29296874m1e-8 50.71289063a50.71289063 50.71289063 0 1 1 0-101.42578124 50.71289063 50.71289063 0 1 1 0 101.42578125ZM504.79296875 376.79296875m0 50.71289062a50.71289063 50.71289063 0 1 1-1e-8-101.42578124 50.71289063 50.71289063 0 1 1 1e-8 101.42578124ZM504.79296875 169.63476562000005m0 50.71289063a50.71289063 50.71289063 0 1 1 0-101.42578125 50.71289063 50.71289063 0 1 1 0 101.42578125Z"  horiz-adv-x="1024" />

    
    <glyph glyph-name="pinglun" unicode="&#58897;" d="M157.568 144.70399999999995c-11.008 18.688-18.219 31.221-21.803 37.91A424.885 424.885 0 0 0 85.333 384c0 235.637 191.03 426.667 426.667 426.667S938.667 619.637 938.667 384 747.637-42.66700000000003 512-42.66700000000003a424.779 424.779 0 0 0-219.125 60.502A2786.56 2786.56 0 0 1 272.82 29.600000000000023l-104.405-28.48c-23.893-6.507-45.803 15.413-39.285 39.296l28.437 104.288z m65.301-3.787l-17.258-63.306 63.306 17.258a32 32 0 0 0 24.523-3.21 4515.84 4515.84 0 0 0 32.352-18.944A360.79 360.79 0 0 1 512 21.33299999999997c200.299 0 362.667 162.368 362.667 362.667S712.299 746.667 512 746.667 149.333 584.299 149.333 384c0-60.587 14.848-118.955 42.827-171.136 3.712-6.912 12.928-22.827 27.37-47.232a32 32 0 0 0 3.34-24.715z m145.995 70.774a32 32 0 1 0 40.917 49.205A159.19 159.19 0 0 1 512 224c37.888 0 73.675 13.173 102.187 36.885a32 32 0 0 0 40.917-49.216A223.179 223.179 0 0 0 512 160a223.179 223.179 0 0 0-143.136 51.69z"  horiz-adv-x="1024" />

    
    <glyph glyph-name="cailing" unicode="&#58918;" d="M785.1-25.8c-12.7 0-25.5 3.1-37.4 9.3l-115 60.3c-3.7 1.9-5.1 6.5-3.2 10.1 1.9 3.7 6.5 5.1 10.1 3.2l115-60.3c23.3-12.2 50.5-9.6 71 6.9 20.5 16.4 29 42.4 22.1 67.7v0.2l-2.1 8.7c-22.4 94.3-30.4 191.4-23.6 288.7 0.1 0.9 0.3 1.7 0.6 2.5 0.1 0.3 14.5 32.7 32.4 73.2 42.5 96 14.3 208.6-68.6 273.9l-3.4 2.7c-10.7 8.4-22.1 15.8-33.8 22-82.8 43.7-186.7 26-252.7-43-64-67-186-180.8-285.8-191.1l-22.4-7.8c-0.8-0.3-1.6-0.4-2.5-0.4H167c-23.5 0-44.1-13.3-53.9-34.7-9.8-21.4-6.2-45.7 9.2-63.5l109.8-126c2.7-3.1 2.4-7.9-0.7-10.6-3.1-2.7-7.9-2.4-10.6 0.7L111 392.9c-19.4 22.2-23.8 52.7-11.6 79.6 12.2 26.8 38.1 43.5 67.5 43.5h17.5l22 7.7c0.6 0.2 1.2 0.3 1.7 0.4 41.8 4.1 93.1 28.8 152.3 73.5 50.3 38 95.8 82.5 125 113.1 34.1 35.7 79.4 59.9 127.8 68.3 49.5 8.6 98.8 0.9 142.7-22.3 12.5-6.6 24.6-14.5 36-23.4l3.5-2.7c88.4-69.5 118.4-189.5 73.1-291.8-15.9-36.1-29.1-65.8-31.9-72-6.5-95.3 1.3-190.5 23.3-282.8l2.1-8.6c8.4-31.2-2.1-63-27.2-83.2-14.5-12-32-18-49.7-18zM380.3-71.7c-39 0-75.7 12.3-103.4 34.6-28.2 22.7-43.7 53.1-43.7 85.5s15.5 62.7 43.7 85.5c27.7 22.3 64.4 34.6 103.4 34.6S456 156.2 483.7 133.9c28.2-22.7 43.7-53.1 43.7-85.5s-15.5-62.7-43.7-85.5c-27.7-22.3-64.4-34.6-103.4-34.6z m0 225.2c-72.8 0-132.1-47.1-132.1-105.1 0-58 59.3-105.1 132.1-105.1s132.1 47.1 132.1 105.1c0 58-59.3 105.1-132.1 105.1zM519.9 40.9c-4.1 0-7.5 3.4-7.5 7.5V454.9c0 4.1 3.4 7.5 7.5 7.5s7.5-3.4 7.5-7.5v-406.5c0-4.1-3.3-7.5-7.5-7.5zM615 236.2h-0.7c-4.1 0.4-7.1 4.1-6.8 8.2 8.8 91.9-90.7 156.8-91.7 157.5-3.5 2.2-4.5 6.9-2.3 10.4s6.9 4.5 10.4 2.3c1.1-0.7 27.3-17.7 52.7-47.1 34-39.4 49.8-82.5 45.8-124.4-0.3-4-3.6-6.9-7.4-6.9zM880 577.9c-1.8 0-3.6 0.6-5 1.9-3.1 2.8-3.4 7.5-0.6 10.6 27 30.3 41.9 68.1 41.8 106.6-0.1 38.2-14.8 72.3-41.6 96.2-55.5 49.5-145.9 39.3-201.5-22.9-2.8-3.1-7.5-3.4-10.6-0.6-3.1 2.8-3.4 7.5-0.6 10.6 29.5 33 68.9 53.7 110.7 58.4 42.2 4.7 81.9-7.5 111.9-34.3 30-26.8 46.5-64.9 46.6-107.4 0.1-42.2-16.1-83.6-45.6-116.6-1.4-1.6-3.4-2.5-5.5-2.5z"  horiz-adv-x="1024" />

    
    <glyph glyph-name="cailing1" unicode="&#58884;" d="M748.339 647.552c-19.207-36.632 4.669-32.155-31.939-12.949-36.632 19.207-75.983 17.57-56.801 54.202 19.23 36.632 64.479 50.736 101.136 31.53 36.631-19.182 6.81-36.175-12.396-72.783M726.701 602.063c-16.511 0-29.917 9.531-44.117 19.616-7.413 5.271-15.067 10.71-23.467 15.115-8.4 4.428-17.306 7.678-25.922 10.807-19.038 6.956-38.727 14.152-46.38 33.96-4.934 12.756-3.272 26.74 5.127 42.746 17.281 32.901 51.073 53.312 88.21 53.312 15.981 0 31.964-3.947 46.188-11.409 23.539-12.323 40.869-33.118 48.787-58.51 7.895-25.392 5.464-52.325-6.884-75.888-10.348-19.736-24.333-29.749-41.542-29.749z m-91.869 97.862c4.092-1.95 10.325-4.212 15.259-6.017 9.676-3.538 20.627-7.534 31.939-13.479 11.313-5.921 20.771-12.636 29.099-18.557 3.995-2.84 8.953-6.378 12.685-8.592 0.24 0.433 0.505 0.915 0.771 1.42 6.232 11.914 7.461 25.513 3.466 38.341-3.996 12.804-12.732 23.274-24.599 29.507-24.141 12.636-55.357 2.696-67.849-21.132-0.29-0.552-0.554-1.034-0.771-1.491zM562.001 89.382l123.688-64.553 8.255 141.764c13.454 25.369-2.72 47.873 6.812 66.02l72.566 118.49c58.462 111.508 53.527 210.574-57.981 269.06-111.532 58.486-249.325 15.5-307.787-96.033l-56.658-108.02c-9.53-18.147-17.04-33.6-25.512-50.014l-162.101-68.691 336.934-175.797M718.927-3.618c-3.923 0-7.846 0.938-11.456 2.814l-145.493 76.299c-12.035 6.328-16.704 21.227-10.374 33.285 6.307 12.035 21.18 16.705 33.286 10.373l99.354-52.107-25.104 121.4a24.707 24.707 0 0 0 2.359 16.512 1764.235 1764.235 0 0 0 15.091 27.967c3.658 6.668 6.859 12.541 11.48 21.35l56.657 108.043c25.224 48.089 30.229 103.133 14.057 154.977-16.175 51.867-51.555 94.299-99.645 119.5-94.926 49.797-212.644 17.136-268.193-74.324-7.029-11.673-22.191-15.379-33.841-8.279-11.649 7.052-15.355 22.215-8.279 33.84 69.004 113.627 215.388 154.23 333.203 92.422 59.737-31.313 103.711-84.047 123.809-148.478 20.097-64.407 13.888-132.809-17.45-192.571l-56.656-108.02c-4.79-9.121-8.112-15.211-11.915-22.168a1614.349 1614.349 0 0 1-10.59-19.52l33.84-163.689c1.927-9.314-1.708-18.918-9.314-24.67a24.701 24.701 0 0 0-14.826-4.956zM279.799 226.667a24.79 24.79 0 0 0-11.433 2.816l-161.283 84.602a24.69 24.69 0 0 0-13.165 22.84c0.385 9.531 6.234 17.955 14.995 21.687l153.773 65.153 4.789 9.579c6.113 12.203 20.988 17.065 33.094 10.951 12.178-6.137 17.065-20.939 10.952-33.094l-8.978-17.834a24.574 24.574 0 0 0-12.299-11.457l-114.132-48.354 115.167-60.412c12.034-6.33 16.704-21.229 10.374-33.287-4.404-8.399-12.972-13.19-21.854-13.19zM322.953 462.129a24.77 24.77 0 0 0-11.432 2.816c-12.059 6.33-16.704 21.229-10.374 33.287l18.629 35.477c6.354 12.059 21.205 16.631 33.287 10.374 12.059-6.331 16.703-21.229 10.374-33.287l-18.629-35.477c-4.429-8.4-12.997-13.19-21.855-13.19zM541.326 302.917c-14.297 53.889-65.562 70.664-91.459 71.939-6.619 0.41-13.382-2.142-18.292-6.859a24.613 24.613 0 0 1-7.557-18.002l0.065-6.52a24.668 24.668 0 0 1-1.221-7.586l-0.517-161.928c-16.17 9.247-35.297 14.605-55.78 14.605-57.86 0-104.938-42.721-104.938-95.238s47.078-95.238 104.938-95.238 104.938 42.721 104.938 95.238c0 2.065-0.081 4.114-0.225 6.147 0.08 0.796 0.125 1.604 0.128 2.421l0.53 166.023h46.524a1.55 1.55 0 0 0 0.481 0c13.623 0 24.646 11.023 24.646 24.646 0.002 3.709-0.793 7.223-2.261 10.352zM366.565 47.382c-30.687 0-55.646 20.604-55.646 45.947s24.959 45.947 55.646 45.947c30.688 0 55.646-20.604 55.646-45.947s-24.958-45.947-55.646-45.947z"  horiz-adv-x="1024" />

    
    <glyph glyph-name="xiazai" unicode="&#58959;" d="M512-46.648889A455.111111 455.111111 0 0 0 242.346667 774.826667a27.306667 27.306667 0 0 0 39.253333-5.688889 28.444444 28.444444 0 0 0-5.688889-39.822222A398.222222 398.222222 0 1 1 910.222222 408.462222a401.635556 401.635556 0 0 1-162.133333 320.853334 29.013333 29.013333 0 0 0-6.257778 39.822222 28.444444 28.444444 0 0 0 39.822222 5.688889A455.111111 455.111111 0 0 0 512-46.648889zM691.2 476.728889a28.444444 28.444444 0 0 1-40.391111 0l-113.777778-113.777778V750.364444a29.013333 29.013333 0 0 1-28.444444 28.444445 28.444444 28.444444 0 0 1-28.444445-28.444445v-386.275555l-113.777778 113.777778a27.875556 27.875556 0 0 1-39.822222-39.822223L489.244444 275.911111a28.444444 28.444444 0 0 1 40.391112 0l161.564444 161.564445a28.444444 28.444444 0 0 1 0 39.253333z"  horiz-adv-x="1024" />

    
    <glyph glyph-name="cailing-copy" unicode="&#60016;" d="M514.1253897 318.10344876c-0.17272798-0.32943051 0.04198818-0.28916897-0.28722648-0.11644999-0.32943051 0.17272798-0.68331289 0.15800649-0.51080975 0.48743701 0.17293481 0.32943051 0.57985776 0.45626737 0.90951308 0.28354835 0.32942151-0.17250317 0.06124213-0.32532071-0.11147684-0.65453537M741.0144 616.60053333c-17.61173333 0-31.91146667 10.1664-47.05813333 20.92373334-7.9072 5.6224-16.07146667 11.424-25.03146667 16.12266666-8.96 4.7232-18.45973333 8.18986667-27.65013333 11.52746667-20.3072 7.41973333-41.3088 15.09546667-49.472 36.224-5.26293333 13.6064-3.49013333 28.52266667 5.4688 45.59573333 18.43306667 35.0944 54.47786667 56.86613333 94.09066666 56.86613334 17.0464 0 34.09493333-4.21013333 49.2672-12.1696 25.10826667-13.14453333 43.5936-35.32586667 52.03946667-62.41066667 8.42133333-27.0848 5.82826667-55.81333333-7.34293333-80.9472-11.03786667-21.05173333-25.9552-31.73226667-44.31146667-31.73226667z m-97.9936 104.38613334c4.3648-2.08 11.01333333-4.4928 16.27626667-6.41813334 10.32106667-3.77386667 22.00213333-8.03626667 34.06826666-14.3776 12.0672-6.31573333 22.15573333-13.4784 31.03893334-19.79413333 4.26133333-3.02933333 9.54986667-6.8032 13.53066666-9.1648 0.256 0.46186667 0.53866667 0.976 0.8224 1.51466667 6.64746667 12.70826667 7.9584 27.21386667 3.69706667 40.89706666-4.2624 13.6576-13.5808 24.8256-26.23893333 31.47413334-25.7504 13.4784-59.04746667 2.87573333-72.37226667-22.5408-0.30933333-0.5888-0.59093333-1.10293333-0.8224-1.5904zM511.85825774 314.86253596999995l0.12395218-0.06469087 0.00827265 0.14206677c0.01348274 0.02542318-0.00272581 0.04797525 0.00682653 0.06616103l0.07272099 0.11874306c0.05858686 0.11174615 0.05364133 0.21102375-0.05810483 0.26963465-0.1117702 0.05861091-0.2498575 0.01553309-0.30844439-0.0962381l-0.05677898-0.10825072c-0.00955035-0.01818576-0.01707638-0.03367175-0.02556652-0.05012081l-0.16244719-0.06883771 0.33765361-0.17617244M732.72213333-29.45920000000001c-4.18453333 0-8.36906667 1.00053333-12.21973333 3.0016l-155.19253333 81.3856c-12.83733333 6.74986667-17.8176 22.64213333-11.0656 35.504 6.72746667 12.83733333 22.592 17.81866667 35.50506666 11.06453333l105.9776-55.5808-26.7776 129.49333334a26.35413333 26.35413333 0 0 0 2.51626667 17.6128 1881.85066667 1881.85066667 0 0 0 16.09706667 29.83146666c3.90186667 7.11253333 7.31626667 13.37706667 12.24533333 22.77333334l60.43413333 115.24586666c26.9056 51.29493333 32.24426667 110.00853333 14.99413334 165.3088-17.25333333 55.3248-54.992 100.5856-106.288 127.46666667-101.2544 53.1168-226.82026667 18.2784-286.07253334-79.27893333-7.4976-12.4512-23.6704-16.40426667-36.09706666-8.83093334-12.4256 7.52213333-16.37866667 23.696-8.83093334 36.096 73.60426667 121.20213333 229.7472 164.512 355.41653334 98.58346667 63.71946667-33.40053333 110.62506667-89.65013333 132.06293333-158.37653333 21.4368-68.7008 14.81386667-141.66293333-18.61333333-205.40906667l-60.43306667-115.22133333c-5.10933333-9.72906667-8.6528-16.22506667-12.70933333-23.64586667a1721.97226667 1721.97226667 0 0 1-11.296-20.82133333l36.096-174.6016c2.05546667-9.93493333-1.82186667-20.1792-9.93493334-26.31466667a26.34773333 26.34773333 0 0 0-15.8144-5.2864zM264.31893333 216.17813333000004a26.44266667 26.44266667 0 0 0-12.1952 3.00373334l-172.0352 90.24213333a26.336 26.336 0 0 0-14.04266666 24.36266667c0.41066667 10.1664 6.6496 19.152 15.99466666 23.1328l164.02453334 69.49653333 5.10826666 10.2176c6.52053333 13.01653333 22.3872 18.20266667 35.30026667 11.68106667 12.98986667-6.54613333 18.20266667-22.33493333 11.68213333-35.30026667l-9.57653333-19.02293333a26.21226667 26.21226667 0 0 0-13.11893333-12.2208l-121.7408-51.5776 122.8448-64.43946667c12.83626667-6.752 17.8176-22.64426667 11.0656-35.50613333-4.6976-8.95893333-13.8368-14.06933333-23.31093334-14.06933334zM310.34986667 467.3376a26.42133333 26.42133333 0 0 0-12.19413334 3.00373333c-12.86293333 6.752-17.8176 22.64426667-11.0656 35.50613334l19.87093334 37.84213333c6.7776 12.86293333 22.61866667 17.73973333 35.50613333 11.0656 12.86293333-6.75306667 17.81653333-22.64426667 11.0656-35.50613333l-19.87093333-37.84213334c-4.72426667-8.96-13.86346667-14.06933333-23.312-14.06933333zM543.28106667 297.51146667c-15.25013333 57.4816-69.9328 75.37493333-97.55626667 76.73493333-7.06026667 0.43733333-14.27413333-2.2848-19.51146667-7.31626667a26.25386667 26.25386667 0 0 1-8.0608-19.20213333l0.06933334-6.95466667a26.31253333 26.31253333 0 0 1-1.3024-8.09173333l-0.55146667-172.7232c-17.248 9.86346667-37.65013333 15.57866667-59.49866667 15.57866667-61.71733333 0-111.93386667-45.56906667-111.93386666-101.5872s50.21653333-101.5872 111.93386666-101.5872 111.93386667 45.56906667 111.93386667 101.5872c0 2.20266667-0.0864 4.38826667-0.24 6.5568 0.08533333 0.84906667 0.13333333 1.71093333 0.13653333 2.5824l0.56533334 177.0912h49.6256a1.65333333 1.65333333 0 0 0 0.51306666 0c14.5312 0 26.28906667 11.75786667 26.28906667 26.28906666 0.00213333 3.95626667-0.84586667 7.70453333-2.41173333 11.04213334zM356.86933333 24.940799999999967c-32.7328 0-59.35573333 21.9776-59.35573333 49.01013333s26.62293333 49.01013333 59.35573333 49.01013334c32.73386667 0 59.35573333-21.9776 59.35573334-49.01013334s-26.62186667-49.01013333-59.35573334-49.01013333z"  horiz-adv-x="1024" />

    
    <glyph glyph-name="play" unicode="&#59085;" d="M823.652 406.261l-523.13 333.913c-6.678 4.452-17.809 4.452-26.713 0-8.904-4.452-13.357-13.357-13.357-22.261v-672.278c0-8.904 4.452-17.809 13.357-22.261 4.452-2.226 8.904-2.226 11.13-2.226 4.452 0 8.904 2.226 13.357 4.452l525.357 336.139c6.678 4.452 11.13 13.357 11.13 22.261s-4.452 15.583-11.13 22.261zM311.652 94.609v578.783l451.896-289.391-451.896-289.391z"  horiz-adv-x="1024" />

    


  </font>
</defs>
</svg>
